<svg xmlns="http://www.w3.org/2000/svg" viewBox="0 0 96 96" width="96" height="96">
  <rect width="96" height="96" rx="22" fill="#241a10"/>
  <defs>
    <mask id="l" maskUnits="userSpaceOnUse" x="0" y="0" width="96" height="96">
      <rect width="96" height="96" fill="#fff"/>
      <path d="M56,61 A13,13 0 0 1 43,48" stroke="#000" stroke-width="15" fill="none"/>
    </mask>
    <mask id="r" maskUnits="userSpaceOnUse" x="0" y="0" width="96" height="96">
      <rect width="96" height="96" fill="#fff"/>
      <path d="M40,35 A13,13 0 0 1 53,48" stroke="#000" stroke-width="15" fill="none"/>
    </mask>
  </defs>
  <g transform="rotate(-45 48 48)" fill="none" stroke="#e8b776" stroke-width="7">
    <path d="M23,35 H40 A13,13 0 0 1 40,61 H23 A13,13 0 0 1 23,35 Z" mask="url(#l)"/>
    <path d="M56,35 H73 A13,13 0 0 1 73,61 H56 A13,13 0 0 1 56,35 Z" mask="url(#r)"/>
  </g>
</svg>
